<svg class="svg-icon" style="width: 1em; height: 1em;vertical-align: middle;fill: currentColor;overflow: hidden; font-size:20px;" viewBox="0 0 1024 1024" version="1.1" xmlns="http://www.w3.org/2000/svg"><path d="M384 334.08V512h128a128 128 0 0 0 128-128V334.08a128.042667 128.042667 0 1 1 85.333333 0V384a213.333333 213.333333 0 0 1-213.333333 213.333333H384v92.586667a128.042667 128.042667 0 1 1-85.333333 0V334.08a128.042667 128.042667 0 1 1 85.333333 0zM341.333333 853.333333a42.666667 42.666667 0 1 0 0-85.333333 42.666667 42.666667 0 0 0 0 85.333333z m341.333334-597.333333a42.666667 42.666667 0 1 0 0-85.333333 42.666667 42.666667 0 0 0 0 85.333333zM341.333333 256a42.666667 42.666667 0 1 0 0-85.333333 42.666667 42.666667 0 0 0 0 85.333333z" fill="#000000" /></svg>