<svg width="120px" height="19.8" xmlns="http://www.w3.org/2000/svg"
  viewBox="0 0 95 19">
  <g >
    <title>Layer 1</title>
    <text id="svg_1"  y="14" x="22" style="font-size:14px; font-weight:500; ">Notifications</text>
    <path id="svg_2" d="m8,16a2,2 0 0 0 1.985,-1.75c0.017,-0.137 -0.097,-0.25 -0.235,-0.25l-3.5,0c-0.138,0 -0.252,0.113 -0.235,0.25a2,2 0 0 0 1.985,1.75z" fill="none"/>
    <path id="svg_3" d="m13,4.5a3.5,3.5 0 0 0 -3.5,3.5l0,2.947c0,0.346 -0.102,0.683 -0.294,0.97l-1.703,2.556a0.018,0.018 0 0 0 -0.003,0.01l0.001,0.006c0,0.002 0.002,0.004 0.004,0.006a0.017,0.017 0 0 0 0.006,0.004l0.007,0.001l10.964,0l0.007,-0.001a0.016,0.016 0 0 0 0.006,-0.004a0.016,0.016 0 0 0 0.004,-0.006l0.001,-0.007a0.017,0.017 0 0 0 -0.003,-0.01l-1.703,-2.554a1.75,1.75 0 0 1 -0.294,-0.97l0,-2.948a3.5,3.5 0 0 0 -3.5,-3.5zm-5,3.5a5,5 0 0 1 10,0l0,2.947c0,0.05 0.015,0.098 0.042,0.139l1.703,2.555a1.518,1.518 0 0 1 -1.263,2.359l-10.964,0a1.518,1.518 0 0 1 -1.263,-2.36l1.703,-2.554a0.25,0.25 0 0 0 0.042,-0.139l0,-2.947z" fill="black"></path>
  </g>
</svg>
